<?xml version="1.0" encoding="UTF-8" standalone="no"?>


<svg
   xmlnsDc="http://purl.org/dc/elements/1.1/"
   xmlnsCc="http://creativecommons.org/ns#"
   xmlnsRdf="http://www.w3.org/1999/02/22-rdf-syntax-ns#"
   xmlnsSvg="http://www.w3.org/2000/svg"
   xmlns="http://www.w3.org/2000/svg"
   xmlnsSodipodi="http://sodipodi.sourceforge.net/DTD/sodipodi-0.dtd"
   xmlnsInkscape="http://www.inkscape.org/namespaces/inkscape"
   width="30"
   height="30"
   viewBox="0 0 30 30"
   version="1.1"
   id="svg822"
   inkscapeVersion="0.92.4 (f8dce91, 2019-08-02)"
   sodipodiDocname="delete.svg">
  <defs
     id="defs816" />
  <sodipodiNamedview
     id="base"
     pagecolor="#ffffff"
     bordercolor="#666666"
     borderopacity="1.0"
     inkscapePageopacity="0.0"
     inkscapePageshadow="2"
     inkscapeZoom="8.9166667"
     inkscapeCx="31.222387"
     inkscapeCy="7.1988484"
     inkscapeDocument-units="px"
     inkscapeCurrent-layer="layer1"
     showgrid="true"
     units="px"
     inkscapeWindow-width="1366"
     inkscapeWindow-height="713"
     inkscapeWindow-x="0"
     inkscapeWindow-y="0"
     inkscapeWindow-maximized="1"
     showguides="false"
     inkscapeSnap-global="false">
    <inkscapeGrid
       type="xygrid"
       id="grid816" />
  </sodipodiNamedview>
  <metadata
     id="metadata819">
    <rdfRDF>
      <ccWork
         rdfAbout="">
        <dcFormat>image/svg+xml</dcFormat>
        <dcType
           rdfResource="http://purl.org/dc/dcmitype/StillImage" />
        <dcTitle></dcTitle>
      </ccWork>
    </rdfRDF>
  </metadata>
  <g
     inkscapeLabel="Layer 1"
     inkscapeGroupmode="layer"
     id="layer1"
     transform="translate(0,-289.0625)">
    <path
       style="opacity:1;fill:#000000;fill-opacity:1;stroke:none;stroke-width:2;stroke-miterlimit:4;stroke-dasharray:none;stroke-opacity:1"
       d="M 12.027344 5 C 10.919344 5 10.244641 5.91352 10.027344 7 L 8.0566406 7 C 6.9486406 7 6.0566406 7.8920001 6.0566406 9 C 6.0566406 10.108 6.9486406 11 8.0566406 11 L 21.943359 11 C 23.051359 11 23.943359 10.108 23.943359 9 C 23.943359 7.8920001 23.051359 7 21.943359 7 L 20.027344 7 C 19.810047 5.91352 19.135344 5 18.027344 5 L 12.027344 5 z M 8 13 L 9.0429688 20.316406 L 9.9628906 24.916016 C 10.180187 26.002496 10.854891 26.916016 11.962891 26.916016 L 17.962891 26.916016 C 19.070891 26.916016 19.745594 26.002496 19.962891 24.916016 L 20.962891 19.916016 L 22 13 C 22 13 7.99376 13.0132 8 13 z "
       transform="translate(0,289.0625)"
       id="rect891" />
  </g>
</svg>
